<?xml version="1.0" encoding="UTF-8"?>
<svg viewBox="0 195 900 300" xmlns="http://www.w3.org/2000/svg">
    <path d="m799.56 319.34l0.44 57.6-199.47 115.27 0.88995-58.45 198.14-114.42z" fill="#6c97b4"/>
    <path d="m699.63 319.29l-49.65 28.56-0.01001-0.01001-50.42-28.81-0.73999-57.94 100.82 58.2z" fill="#99d6ff"/>
    <path d="m601.42 433.76l-0.88995 58.45-150.29-86.8-50.27-29.03-50.14-28.95-50.06-28.92v-57.97l301.65 173.22z" fill="#99d6ff"/>
    <path d="m598.81 261.09l0.73999 57.94-49.84 28.78-50.11-28.94 99.21-57.78z" fill="#6c97b4"/>
    <path d="m450.24 405.41l-0.019989 0.029999-149.56 86.17-0.089996-57.85 99.4-57.38 50.27 29.03z" fill="#6c97b4"/>
    <path d="m300.57 433.76l0.089996 57.85-200.66-115.82v-57.82l200.57 115.79z" fill="#99d6ff"/>
    <path d="m299.77 260.54v57.97l-49.85 28.7-50.27-28.98 100.12-57.69z" fill="#6c97b4"/>
    <path d="M499.6,318.87l50.11,28.94,50.08,28.91L650,347.85l49.65-28.56-100.82-58.2Zm-50.15-29,149.43-86.32L799.56,319.34,601.42,433.77,299.77,260.54,199.65,318.23l50.27,29,50.19,28.93,49.73-28.72,50.13,29-99.4,57.39L100,318,299,203Z" fill="#ffd4f2"/>
</svg>
